<svg x="0" y="0" width="700" height="350" viewBox="0 0 700 350" xmlns="http://www.w3.org/2000/svg" xmlns:xlink="http://www.w3.org/1999/xlink" xmlns:fi="http://pattern.flaticon.com/"><rect x="0px" y="0px" width="100%" height="100%" opacity="0" fill="#ffffff"/><defs><g transform="matrix(0.09078752994537354 0.051878586411476135 -0.051878586411476135 0.09078752994537354 216.95126342773438 157.58631896972656)" id="L1_113"><path d="M442.043,153.417c-6.999-26.128-16.727-52.669-29.176-80V24.6c0-14.507-11.093-25.6-25.6-25.6H122.733     c-14.507,0-25.6,11.093-25.6,25.6v49.493c-57.173,119.467-57.173,227.84,0,361.813V485.4c0,14.507,11.093,25.6,25.6,25.6h264.533     c14.507,0,25.6-11.093,25.6-25.6v-49.493C457.612,335.063,467.335,246.762,442.043,153.417z M96.445,386.779     c-0.268-0.784-0.534-1.567-0.798-2.349c-0.42-1.251-0.835-2.5-1.245-3.747c-0.154-0.469-0.308-0.938-0.46-1.406     c-0.471-1.447-0.936-2.892-1.392-4.334c-0.074-0.233-0.147-0.466-0.22-0.698c-4.314-13.7-7.949-27.14-10.907-40.375     c-0.052-0.231-0.104-0.462-0.155-0.693c-0.306-1.379-0.602-2.756-0.893-4.13c-0.088-0.418-0.177-0.836-0.264-1.254     c-0.261-1.25-0.515-2.498-0.764-3.745c-0.11-0.551-0.218-1.102-0.326-1.653c-0.223-1.141-0.442-2.28-0.654-3.418     c-0.127-0.68-0.25-1.36-0.373-2.039c-0.186-1.025-0.372-2.05-0.55-3.073c-0.146-0.842-0.286-1.683-0.427-2.524     c-0.146-0.872-0.295-1.745-0.435-2.616c-0.19-1.182-0.37-2.362-0.548-3.541c-0.082-0.538-0.168-1.076-0.248-1.614     c-0.524-3.559-0.998-7.106-1.42-10.642c-0.033-0.275-0.062-0.549-0.094-0.823c-0.175-1.493-0.343-2.985-0.5-4.474     c-0.038-0.364-0.073-0.728-0.111-1.092c-0.144-1.402-0.281-2.803-0.408-4.203c-0.036-0.396-0.07-0.792-0.105-1.187     c-0.12-1.372-0.234-2.742-0.339-4.111c-0.031-0.404-0.061-0.808-0.091-1.211c-0.1-1.362-0.192-2.722-0.276-4.081     c-0.025-0.402-0.05-0.805-0.074-1.207c-0.081-1.373-0.152-2.745-0.217-4.116c-0.018-0.38-0.038-0.76-0.054-1.139     c-0.063-1.415-0.114-2.829-0.16-4.242c-0.011-0.332-0.024-0.664-0.034-0.995c-0.045-1.524-0.078-3.046-0.104-4.568     c-0.004-0.219-0.01-0.438-0.014-0.657c-0.026-1.739-0.039-3.476-0.039-5.211c0-0.354,0.006-0.708,0.007-1.062     c0.004-1.302,0.011-2.603,0.03-3.902c0.014-1.006,0.039-2.011,0.062-3.017c0.014-0.628,0.026-1.255,0.043-1.882     c0.035-1.218,0.079-2.436,0.126-3.653c0.015-0.384,0.028-0.769,0.044-1.153c0.059-1.391,0.126-2.782,0.202-4.172     c0.009-0.168,0.018-0.337,0.027-0.505c2.494-44.646,13.619-88.501,33.378-133.984c45.223,108.364,45.226,204.784,0.011,315.705     c-2.246-5.746-4.382-11.445-6.405-17.099c-0.116-0.325-0.229-0.648-0.344-0.972c-0.509-1.43-1.01-2.856-1.505-4.28     C97.094,388.681,96.769,387.729,96.445,386.779z M119.048,84.333h272.059c-50.804,112.879-50.626,216.351,0.532,341.333H118.184     C169.463,305.148,169.751,201.678,119.048,84.333z M438.238,255.391c-0.005,0.925-0.009,1.851-0.021,2.776     c-0.019,1.343-0.048,2.686-0.083,4.029c-0.006,0.26-0.011,0.52-0.018,0.781c-0.043,1.565-0.097,3.13-0.161,4.696     c0,0.007,0,0.014-0.001,0.021c-1.922,46.769-13.129,94.055-33.622,144.32c-45.194-115.968-45.225-211.487-0.098-315.505     c22.662,54.086,34.002,105.222,34.017,156.791C438.252,253.996,438.243,254.693,438.238,255.391z M114.2,24.6     c0-5.12,4.267-8.533,8.533-8.533h264.533c5.12,0,8.533,3.413,8.533,8.533v42.667H114.2V24.6z M395.8,485.4     c0,5.12-3.413,8.533-8.533,8.533H122.733c-5.12,0-8.533-3.413-8.533-8.533v-42.667h281.6V485.4z"/><path d="M322.413,186.733c-2.244-0.748-4.324-0.676-6.097,0h-11.823c-67.413,0-122.027,54.613-122.027,122.027v14.507     c0,4.82,3.026,8.125,7.653,8.496c0.294,0.035,0.587,0.037,0.881,0.037h14.507c67.413,0,122.027-54.613,122.027-122.027v-11.947     C329.24,192.707,326.68,188.44,322.413,186.733z M304.493,203.8h2.531c-9.993,24.875-24.677,41.574-57.997,51.2     c-22.305,6.083-35.741,13.325-44.894,22.911C217.289,234.97,257.206,203.8,304.493,203.8z M205.507,314.733h-2.335     c8.378-24.076,16.473-33.799,50.122-43.52c24.802-6.889,41.19-17.492,52.774-31.266     C293.123,283.236,253.041,314.733,205.507,314.733z"/></g><g transform="matrix(0.1171875 0 0 0.1171875 198 -12)" id="L1_116"><path d="M412.867,459.8h-25.6V289.133h4.267c6.827,0,12.8-5.973,12.8-12.8v-25.6c0-6.827-5.973-12.8-12.8-12.8h-86.647     c22.453-15.816,37.573-41.257,39.498-70.456c5.207-2.931,8.749-8.507,8.749-14.877v-17.067c0-9.387-7.68-17.067-17.067-17.067     h-76.8V101.4H395.8c5.12,0,8.533-3.413,8.533-8.533V66.179c14.679-3.814,25.6-17.216,25.6-33.046     C429.933,14.36,414.573-1,395.8-1c-18.773,0-34.133,15.36-34.133,34.133c0,15.829,10.921,29.232,25.6,33.046v18.154H250.733     c-5.12,0-8.533,3.413-8.533,8.533v25.6h-76.8c-9.387,0-17.067,7.68-17.067,17.067V152.6c0,6.37,3.542,11.946,8.749,14.877     c1.926,29.199,17.045,54.641,39.498,70.456h-86.647c-6.827,0-12.8,5.973-12.8,12.8v25.6c0,6.827,5.973,12.8,12.8,12.8h4.267     V459.8H88.6c-5.12,0-8.533,3.413-8.533,8.533v34.133c0,5.12,3.413,8.533,8.533,8.533h324.267c5.12,0,8.533-3.413,8.533-8.533     v-34.133C421.4,463.213,417.987,459.8,412.867,459.8z M378.733,33.133c0-9.387,7.68-17.067,17.067-17.067     s17.067,7.68,17.067,17.067c0,9.387-7.68,17.067-17.067,17.067S378.733,42.52,378.733,33.133z M165.4,135.533h170.667V152.6     H165.4V135.533z M174.787,169.667H326.68c-4.267,38.4-36.693,68.267-75.947,68.267S179.053,208.067,174.787,169.667z M114.2,255     h273.067v17.067H114.2V255z M131.267,289.133H370.2V459.8H131.267V289.133z M404.333,493.933h-307.2v-17.067H114.2h273.067     h17.067V493.933z"/><path d="M327.533,357.4h-153.6c-5.12,0-8.533,3.413-8.533,8.533V434.2c0,5.12,3.413,8.533,8.533,8.533h153.6     c5.12,0,8.533-3.413,8.533-8.533v-68.267C336.067,360.813,332.653,357.4,327.533,357.4z M319,425.667H182.467v-51.2H319V425.667z     "/><path d="M208.067,408.6H293.4c5.12,0,8.533-3.413,8.533-8.533c0-5.12-3.413-8.533-8.533-8.533h-85.333     c-5.12,0-8.533,3.413-8.533,8.533C199.533,405.187,202.947,408.6,208.067,408.6z"/></g><path d="M47.889,6.083A18.824,18.824,0,0,0,36.65,11.65a20.632,20.632,0,0,0-1.582,1.8C32.75,7.874,26.347,4,19,4,9.626,4,2,10.28,2,18S9.626,32,19,32c.052,0,.1-.007.156-.008-.207.18-.421.352-.616.548a12.741,12.741,0,0,0-3.457,10.571A18.824,18.824,0,0,0,20.65,54.35a18.824,18.824,0,0,0,11.239,5.567A15.475,15.475,0,0,0,33.5,60a12.426,12.426,0,0,0,8.96-3.541,12.741,12.741,0,0,0,3.457-10.571,18.237,18.237,0,0,0-3.592-8.94c.4.033.8.054,1.206.054A18.516,18.516,0,0,0,56.35,31.35a18.824,18.824,0,0,0,5.567-11.239A12.741,12.741,0,0,0,58.46,9.54,12.737,12.737,0,0,0,47.889,6.083Zm-9.825,6.981A16.825,16.825,0,0,1,48.1,8.072a11.286,11.286,0,0,1,7.263,1.545l-.514.172a13.637,13.637,0,0,0-9.238,11.068,11.781,11.781,0,0,1-6.981,9.109L35.74,31.2c-.284-.155-.568-.311-.858-.451C31.465,25.877,32.8,18.326,38.064,13.064ZM19,6C26.1,6,32.174,9.964,33.652,15.473c-.114.189-.218.381-.325.572l-.853-.426a13.635,13.635,0,0,0-14.359,1.3,11.782,11.782,0,0,1-11.376,1.5l-2.7-1.079C4.474,11.031,11.008,6,19,6ZM4.136,19.531,6,20.275a13.634,13.634,0,0,0,5.068.971,13.772,13.772,0,0,0,8.251-2.732A11.645,11.645,0,0,1,31.58,17.408l.852.426a16.721,16.721,0,0,0-1.4,7.3A16.494,16.494,0,0,1,19,30C11.379,30,5.081,25.426,4.136,19.531Zm27.22,8.076a12.553,12.553,0,0,0,.654,2.045A16.882,16.882,0,0,0,29.3,29.11,16.338,16.338,0,0,0,31.356,27.607ZM32.1,57.928a16.825,16.825,0,0,1-10.031-4.992,16.825,16.825,0,0,1-4.992-10.031,11.158,11.158,0,0,1,1.793-7.623l.909,2.132a13.792,13.792,0,0,0,10.663,8.172,11.648,11.648,0,0,1,9.455,7.891l.667,2A10.926,10.926,0,0,1,32.1,57.928Zm10-4.157-.309-.927A13.636,13.636,0,0,0,30.72,43.606a11.779,11.779,0,0,1-9.108-6.981l-1.288-3A10.54,10.54,0,0,1,27.509,31a13.522,13.522,0,0,1,1.4.073,16.825,16.825,0,0,1,10.031,4.992A16.825,16.825,0,0,1,43.928,46.1,11.142,11.142,0,0,1,42.1,53.771Zm17.83-33.866a16.825,16.825,0,0,1-4.992,10.031c-4.2,4.2-9.945,5.986-14.707,4.6a20.7,20.7,0,0,0-2.417-2.048l1.6-.686a13.792,13.792,0,0,0,8.172-10.663,11.648,11.648,0,0,1,7.89-9.455l1.713-.571A10.822,10.822,0,0,1,59.928,19.905Z" transform="matrix(0.9375 0 0 0.9375 27 263)" id="L1_120"/><path d="M51,21H49.618A3.962,3.962,0,0,0,47,20H45V16a1,1,0,0,0,1-1V11a1,1,0,0,0-1-1H32V8h1a3,3,0,0,0,0-6H25a3,3,0,0,0,0,6h1v2H13a1,1,0,0,0-1,1v3H9a1,1,0,0,0-.707,1.707L13,20.414V56a1,1,0,0,0-1,1v4a1,1,0,0,0,1,1H45a1,1,0,0,0,1-1V57a1,1,0,0,0-1-1V52h2a3.962,3.962,0,0,0,2.618-1H51a7.008,7.008,0,0,0,7-6.771A3,3,0,0,0,59,42V30a3,3,0,0,0-1-2.229A7.008,7.008,0,0,0,51,21Zm.979,23.206A1,1,0,0,1,51,45H49.618A3.962,3.962,0,0,0,47,44H45V28h2a3.962,3.962,0,0,0,2.618-1H51a1,1,0,0,1,.979.794A3,3,0,0,0,51,30V42A3,3,0,0,0,51.979,44.206ZM28,16v3H15V16ZM43,27H15V21H43ZM15,29H28V43H15Zm15,0H43V43H30Zm17-7a2,2,0,0,1,0,4H45V22Zm-4-3H30V16H43ZM24,5a1,1,0,0,1,1-1h8a1,1,0,0,1,0,2H25A1,1,0,0,1,24,5Zm4,3h2v2H28ZM14,12H44v2H14Zm-1,4v1.586L11.414,16ZM44,60H14V58H44ZM15,56V45H43V56Zm32-6H45V46h2a2,2,0,0,1,0,4Zm10-8a.988.988,0,0,1-.5.858,1,1,0,0,0-.5.865V44a5.006,5.006,0,0,1-5,5h-.142a3.592,3.592,0,0,0,0-2H51a3,3,0,0,0,3-3v-.277a1,1,0,0,0-.5-.865A.988.988,0,0,1,53,42V30a.988.988,0,0,1,.5-.858,1,1,0,0,0,.5-.865V28a3,3,0,0,0-3-3h-.142a3.592,3.592,0,0,0,0-2H51a5.006,5.006,0,0,1,5,5v.277a1,1,0,0,0,.5.865A.988.988,0,0,1,57,30Z" transform="matrix(0.9375 0 0 0.9375 26 75)" id="L1_121"/></defs><g fi:class="KUsePattern" opacity="1"><pattern id="pattern_L1_116" width="350" height="350" patternUnits="userSpaceOnUse"><use xlink:href="#L1_116" x="-350" y="-350"/><use xlink:href="#L1_116" x="0" y="-350"/><use xlink:href="#L1_116" x="350" y="-350"/><use xlink:href="#L1_116" x="-350" y="0"/><use xlink:href="#L1_116" x="0" y="0"/><use xlink:href="#L1_116" x="350" y="0"/><use xlink:href="#L1_116" x="-350" y="350"/><use xlink:href="#L1_116" x="0" y="350"/><use xlink:href="#L1_116" x="350" y="350"/></pattern><rect x="0" y="0" width="100%" height="100%" fill="url(#pattern_L1_116)"/></g><g fi:class="KUsePattern" opacity="1"><pattern id="pattern_L1_113" width="350" height="350" patternUnits="userSpaceOnUse"><use xlink:href="#L1_113" x="-350" y="-350"/><use xlink:href="#L1_113" x="0" y="-350"/><use xlink:href="#L1_113" x="350" y="-350"/><use xlink:href="#L1_113" x="-350" y="0"/><use xlink:href="#L1_113" x="0" y="0"/><use xlink:href="#L1_113" x="350" y="0"/><use xlink:href="#L1_113" x="-350" y="350"/><use xlink:href="#L1_113" x="0" y="350"/><use xlink:href="#L1_113" x="350" y="350"/></pattern><rect x="0" y="0" width="100%" height="100%" fill="url(#pattern_L1_113)"/></g><g fi:class="KUsePattern" opacity="1"><pattern id="pattern_L1_120" width="350" height="350" patternUnits="userSpaceOnUse"><use xlink:href="#L1_120" x="-350" y="-350"/><use xlink:href="#L1_120" x="0" y="-350"/><use xlink:href="#L1_120" x="350" y="-350"/><use xlink:href="#L1_120" x="-350" y="0"/><use xlink:href="#L1_120" x="0" y="0"/><use xlink:href="#L1_120" x="350" y="0"/><use xlink:href="#L1_120" x="-350" y="350"/><use xlink:href="#L1_120" x="0" y="350"/><use xlink:href="#L1_120" x="350" y="350"/></pattern><rect x="0" y="0" width="100%" height="100%" fill="url(#pattern_L1_120)"/></g><g fi:class="KUsePattern" opacity="1"><pattern id="pattern_L1_121" width="350" height="350" patternUnits="userSpaceOnUse"><use xlink:href="#L1_121" x="-350" y="-350"/><use xlink:href="#L1_121" x="0" y="-350"/><use xlink:href="#L1_121" x="350" y="-350"/><use xlink:href="#L1_121" x="-350" y="0"/><use xlink:href="#L1_121" x="0" y="0"/><use xlink:href="#L1_121" x="350" y="0"/><use xlink:href="#L1_121" x="-350" y="350"/><use xlink:href="#L1_121" x="0" y="350"/><use xlink:href="#L1_121" x="350" y="350"/></pattern><rect x="0" y="0" width="100%" height="100%" fill="url(#pattern_L1_121)"/></g></svg>