<svg xmlns="http://www.w3.org/2000/svg" viewBox="0 0 128.58 172.54"><defs><style>.cls-1{fill:#f7fafc;}</style></defs><g id="Layer_2" data-name="Layer 2"><g id="Layer_2-2" data-name="Layer 2"><path class="cls-1" d="M68.84,152c-1.22,3.09-2.61,6.13-4.09,9.1-1.59,3.23-3.4,7.71-6.29,10-2.7,2.17-8-.36-10.87-1.41a55.38,55.38,0,0,1-13-6.77C16.17,150,5.56,128,1.73,106.29A115.05,115.05,0,0,1,0,86.33C0,38.67,28.78,0,64.29,0c2.69,0,6-.28,8.47.89C72,2.45,69.55,3.38,68.13,4.4a55.83,55.83,0,0,0-12,11.54,42,42,0,0,0-7.23,15.63,51,51,0,0,0-1.15,8.56A62.43,62.43,0,0,0,48,48.67a65.58,65.58,0,0,0,1.41,8.39,83.06,83.06,0,0,0,2.36,8.06C55.4,75.65,60.7,85,65,94.38a108.35,108.35,0,0,1,5.58,14.1,72.56,72.56,0,0,1,1.85,7.17,63.8,63.8,0,0,1,1,7.27,62.4,62.4,0,0,1-.53,14.71A68.36,68.36,0,0,1,68.84,152Z"/><path class="cls-1" d="M128.58,86.33c0,23.19-6.85,47.33-22.14,65.16A64.23,64.23,0,0,1,87.13,167a52.05,52.05,0,0,1-11,4.14,49.19,49.19,0,0,1-5.91,1.1c-1.47.18-3.48.55-4.83,0,1.23-2.88,4-5.6,5.73-8.31A83.4,83.4,0,0,0,76,155.12a70.5,70.5,0,0,0,5.51-15.87,66.22,66.22,0,0,0,1.33-16.9,65.24,65.24,0,0,0-.92-8.48A82.13,82.13,0,0,0,80,105.63a115,115,0,0,0-6-15.45c-2.3-4.92-4.76-9.65-7.08-14.33a153.46,153.46,0,0,1-6.37-14A68.36,68.36,0,0,1,56.68,47.6a50.07,50.07,0,0,1-.11-14.51,36.7,36.7,0,0,1,5-13.46A54.52,54.52,0,0,1,71.23,8.18c2.67-2.47,5.29-6.64,9.24-5.4A50.65,50.65,0,0,1,93.64,9.53,73.34,73.34,0,0,1,114.9,33.11C124.27,49.12,128.58,67.86,128.58,86.33Z"/></g></g></svg>